<?xml version="1.0" encoding="utf-8"?>
<!-- Generator: Adobe Illustrator 19.0.0, SVG Export Plug-In . SVG Version: 6.00 Build 0)  -->
<svg version="1.1" id="Layer_1" xmlns="http://www.w3.org/2000/svg" xmlns:xlink="http://www.w3.org/1999/xlink" x="0px" y="0px"
	 viewBox="0 0 61 61" style="enable-background:new 0 0 61 61;" xml:space="preserve">
<style type="text/css">
	.st0{fill:#F095A4;}
	.st1{fill:#FCFCFB;}
	.st2{fill:#FFFFFF;}
</style>
<g id="XMLID_308_">
	<g id="XMLID_320_">
		<circle id="XMLID_511_" class="st0" cx="30.5" cy="30.5" r="30"/>
	</g>
	<g id="XMLID_309_">
		<g id="XMLID_317_">
			<path id="XMLID_403_" class="st1" d="M30.5,48.6c-0.2,0-0.3-0.1-0.4-0.2L13.4,27.7c-0.2-0.2-0.2-0.5,0-0.7l6.3-8.7
				c0.1-0.1,0.3-0.2,0.4-0.2H41c0.2,0,0.3,0.1,0.4,0.2l6.3,8.7c0.1,0.2,0.1,0.5,0,0.7L30.9,48.4C30.8,48.5,30.7,48.6,30.5,48.6z
				 M14.4,27.4l16.1,19.8l16.1-19.8l-5.9-8.1H20.3L14.4,27.4z"/>
			<path id="XMLID_406_" class="st2" d="M30.5,48.8c-0.2,0-0.4-0.1-0.5-0.2L13.2,27.8c-0.2-0.2-0.2-0.6,0-0.9l6.3-8.7
				c0.1-0.2,0.3-0.3,0.5-0.3H41c0.2,0,0.4,0.1,0.5,0.3l6.3,8.7c0.2,0.3,0.2,0.6,0,0.9L31,48.5C30.9,48.7,30.7,48.8,30.5,48.8z
				 M20,18.3c-0.1,0-0.2,0.1-0.3,0.2l-6.3,8.7c-0.1,0.1-0.1,0.4,0,0.5l16.7,20.7c0.1,0.2,0.4,0.2,0.6,0l16.7-20.7
				c0.1-0.1,0.1-0.4,0-0.5l-6.3-8.7c-0.1-0.1-0.2-0.2-0.3-0.2H20z M30.5,47.5L14.2,27.4l0.1-0.1l5.9-8.2h20.5l6,8.3l-0.1,0.1
				L30.5,47.5z M14.6,27.4L30.5,47l15.9-19.6l-5.8-8H20.4L14.6,27.4z"/>
		</g>
		<g id="XMLID_316_">
			<path id="XMLID_399_" class="st1" d="M47.2,27.9H13.8c-0.3,0-0.5-0.2-0.5-0.5c0-0.3,0.2-0.5,0.5-0.5h33.5c0.3,0,0.5,0.2,0.5,0.5
				C47.8,27.7,47.5,27.9,47.2,27.9z"/>
			<path id="XMLID_400_" class="st2" d="M47.2,28.1H13.8c-0.4,0-0.7-0.3-0.7-0.7s0.3-0.7,0.7-0.7h33.5c0.4,0,0.7,0.3,0.7,0.7
				S47.6,28.1,47.2,28.1z M13.8,27c-0.2,0-0.4,0.2-0.4,0.4s0.2,0.4,0.4,0.4h33.5c0.2,0,0.4-0.2,0.4-0.4S47.4,27,47.2,27H13.8z"/>
		</g>
		<g id="XMLID_315_">
			<path id="XMLID_395_" class="st1" d="M30.5,48.6c-0.1,0-0.1,0-0.2,0c-0.3-0.1-0.4-0.4-0.3-0.7l6.3-20.7c0.1-0.3,0.4-0.4,0.7-0.4
				c0.3,0.1,0.4,0.4,0.3,0.7L31,48.2C30.9,48.5,30.7,48.6,30.5,48.6z"/>
			<path id="XMLID_396_" class="st2" d="M30.5,48.8c-0.1,0-0.1,0-0.2,0c-0.3-0.1-0.5-0.5-0.4-0.9l6.3-20.7c0.1-0.2,0.2-0.3,0.3-0.4
				c0.2-0.1,0.3-0.1,0.5,0c0.3,0.1,0.5,0.5,0.4,0.9l-6.3,20.7C31.1,48.6,30.8,48.8,30.5,48.8z M36.8,27c-0.1,0-0.1,0-0.2,0
				c-0.1,0-0.2,0.1-0.2,0.2l-6.3,20.7c-0.1,0.2,0,0.4,0.2,0.5c0.2,0.1,0.4-0.1,0.5-0.3l6.3-20.7c0.1-0.2,0-0.4-0.2-0.5
				C36.9,27,36.8,27,36.8,27z"/>
		</g>
		<g id="XMLID_314_">
			<path id="XMLID_391_" class="st1" d="M30.5,48.6c-0.2,0-0.4-0.1-0.5-0.4l-6.3-20.7c-0.1-0.3,0.1-0.6,0.3-0.7
				c0.3-0.1,0.6,0.1,0.7,0.4L31,47.9c0.1,0.3-0.1,0.6-0.3,0.7C30.6,48.6,30.6,48.6,30.5,48.6z"/>
			<path id="XMLID_392_" class="st2" d="M30.5,48.8c-0.3,0-0.6-0.2-0.6-0.5l-6.3-20.7c-0.1-0.4,0.1-0.7,0.4-0.9c0.2-0.1,0.3,0,0.5,0
				c0.2,0.1,0.3,0.2,0.3,0.4l6.3,20.7c0.1,0.4-0.1,0.7-0.4,0.9C30.6,48.7,30.6,48.8,30.5,48.8z M24.2,27c0,0-0.1,0-0.1,0
				c-0.2,0.1-0.3,0.3-0.2,0.5l6.3,20.7c0.1,0.2,0.3,0.3,0.5,0.3c0.2-0.1,0.3-0.3,0.3-0.5l-6.3-20.7c0-0.1-0.1-0.2-0.2-0.2
				C24.3,27,24.3,27,24.2,27z"/>
		</g>
		<g id="XMLID_313_">
			<path id="XMLID_387_" class="st1" d="M24.2,27.9c-0.2,0-0.4-0.1-0.5-0.3l-4.2-8.7c-0.1-0.3,0-0.6,0.2-0.7c0.3-0.1,0.6,0,0.7,0.2
				l4.2,8.7c0.1,0.3,0,0.6-0.2,0.7C24.4,27.9,24.3,27.9,24.2,27.9z"/>
			<path id="XMLID_388_" class="st2" d="M24.2,28.1c-0.3,0-0.5-0.1-0.6-0.4L19.4,19c-0.2-0.3,0-0.8,0.3-0.9c0.2-0.1,0.3-0.1,0.5,0
				c0.2,0.1,0.3,0.2,0.4,0.4l4.2,8.7c0.2,0.3,0,0.8-0.3,0.9C24.4,28.1,24.3,28.1,24.2,28.1z M20,18.3c-0.1,0-0.1,0-0.2,0
				c-0.2,0.1-0.3,0.3-0.2,0.5l4.2,8.7c0.1,0.2,0.3,0.3,0.5,0.2c0.2-0.1,0.3-0.3,0.2-0.5l-4.2-8.7c0-0.1-0.1-0.2-0.2-0.2
				C20.1,18.3,20.1,18.3,20,18.3z"/>
		</g>
		<g id="XMLID_312_">
			<path id="XMLID_383_" class="st1" d="M24.2,27.9c-0.1,0-0.2,0-0.3-0.1c-0.2-0.2-0.3-0.5-0.1-0.8l6.3-8.7c0.2-0.2,0.5-0.3,0.7-0.1
				c0.2,0.2,0.3,0.5,0.1,0.8l-6.3,8.7C24.5,27.9,24.4,27.9,24.2,27.9z"/>
			<path id="XMLID_384_" class="st2" d="M24.2,28.1c-0.1,0-0.3,0-0.4-0.1c-0.3-0.2-0.4-0.7-0.1-1l6.3-8.7c0.1-0.1,0.3-0.2,0.4-0.3
				c0.2,0,0.4,0,0.5,0.1c0.3,0.2,0.4,0.7,0.1,1l-6.3,8.7C24.6,28,24.4,28.1,24.2,28.1z M30.5,18.3C30.5,18.3,30.5,18.3,30.5,18.3
				c-0.2,0-0.2,0.1-0.3,0.2l-6.3,8.7c-0.1,0.2-0.1,0.4,0.1,0.6c0.2,0.1,0.4,0.1,0.5-0.1l6.3-8.7c0.1-0.2,0.1-0.4-0.1-0.6
				C30.7,18.3,30.6,18.3,30.5,18.3z"/>
		</g>
		<g id="XMLID_311_">
			<path id="XMLID_379_" class="st1" d="M36.8,27.9c-0.2,0-0.3-0.1-0.4-0.2L30.1,19c-0.2-0.2-0.1-0.6,0.1-0.8
				c0.2-0.2,0.6-0.1,0.7,0.1l6.3,8.7c0.2,0.2,0.1,0.6-0.1,0.8C37,27.9,36.9,27.9,36.8,27.9z"/>
			<path id="XMLID_380_" class="st2" d="M36.8,28.1c-0.2,0-0.4-0.1-0.5-0.3L30,19.1c-0.2-0.3-0.2-0.7,0.1-1c0.1-0.1,0.3-0.2,0.5-0.1
				c0.2,0,0.3,0.1,0.4,0.3l6.3,8.7c0.2,0.3,0.2,0.7-0.1,1C37.1,28,36.9,28.1,36.8,28.1z M30.5,18.3c-0.1,0-0.2,0-0.2,0.1
				c-0.2,0.1-0.2,0.4-0.1,0.6l6.3,8.7c0.1,0.2,0.4,0.2,0.5,0.1c0.2-0.1,0.2-0.4,0.1-0.6l-6.3-8.7C30.7,18.4,30.6,18.3,30.5,18.3
				C30.5,18.3,30.5,18.3,30.5,18.3z"/>
		</g>
		<g id="XMLID_310_">
			<path id="XMLID_294_" class="st1" d="M36.8,27.9c-0.1,0-0.2,0-0.2-0.1c-0.3-0.1-0.4-0.5-0.2-0.7l4.2-8.7c0.1-0.3,0.4-0.4,0.7-0.2
				c0.3,0.1,0.4,0.5,0.2,0.7l-4.2,8.7C37.2,27.8,37,27.9,36.8,27.9z"/>
			<path id="XMLID_295_" class="st2" d="M36.8,28.1c-0.1,0-0.2,0-0.3-0.1c-0.3-0.2-0.5-0.6-0.3-0.9l4.2-8.7c0.1-0.2,0.2-0.3,0.4-0.3
				c0.2-0.1,0.3,0,0.5,0c0.3,0.2,0.5,0.6,0.3,0.9l-4.2,8.7C37.3,27.9,37,28.1,36.8,28.1z M41,18.3c0,0-0.1,0-0.1,0
				c-0.1,0-0.2,0.1-0.2,0.2l-4.2,8.7c-0.1,0.2,0,0.4,0.2,0.5c0.2,0.1,0.4,0,0.5-0.2l4.2-8.7c0.1-0.2,0-0.4-0.2-0.5
				C41.1,18.3,41,18.3,41,18.3z"/>
		</g>
	</g>
</g>
</svg>
