<?xml version="1.0" encoding="utf-8"?>
<!-- Generator: Adobe Illustrator 19.0.0, SVG Export Plug-In . SVG Version: 6.00 Build 0)  -->
<svg version="1.1" id="Layer_1" xmlns="http://www.w3.org/2000/svg" xmlns:xlink="http://www.w3.org/1999/xlink" x="0px" y="0px"
	 viewBox="0 0 61 61" style="enable-background:new 0 0 61 61;" xml:space="preserve">
<style type="text/css">
	.st0{fill:#F095A4;}
	.st1{fill:#FFFFFF;}
</style>
<g id="XMLID_414_">
	<g id="XMLID_271_">
		<g id="XMLID_272_">
			<circle id="XMLID_488_" class="st0" cx="30.6" cy="30.5" r="30"/>
		</g>
	</g>
	<g id="XMLID_257_">
		<g id="XMLID_258_">
			<g id="XMLID_259_">
				<path id="XMLID_338_" class="st1" d="M46.4,31.5h-0.5v-4.4c0-0.7-0.3-1.3-0.9-1.7v-0.6c0-0.9-0.7-1.6-1.6-1.6h-0.4l1.4-2
					c0.5-0.7,0.3-1.6-0.4-2.1l-9.4-6.4c-0.3-0.2-0.7-0.3-1.1-0.2c-0.4,0.1-0.7,0.3-1,0.6l-8.1,11.9h-2.3l0.5-5.5
					c0-0.1,0-0.1,0.1-0.1c0.7-0.3,1.3-0.8,1.7-1.4c0,0,0.1-0.1,0.2-0.1l3.5,0.4c0.3,0,0.5-0.2,0.5-0.4s-0.2-0.5-0.4-0.5L24.8,17
					c-0.4,0-0.8,0.1-1,0.5c-0.3,0.5-0.7,0.8-1.3,1c-0.4,0.1-0.7,0.5-0.7,0.9l-0.6,5.6h-0.6l0.9-8.7c0-0.3,0.3-0.5,0.6-0.5l7.2,0.7
					c0.3,0,0.5-0.2,0.5-0.4s-0.2-0.5-0.4-0.5l-7.2-0.7c-0.8-0.1-1.6,0.5-1.6,1.3l-0.7,7h-1.2c-0.9,0-1.6,0.7-1.6,1.6v0.4
					c-0.7,0.3-1.2,1-1.2,1.9v15.8c0,1.1,0.9,2.1,2.1,2.1h25.8c1.1,0,2.1-0.9,2.1-2.1v-4.4h0.5c0.6,0,1-0.5,1-1v-4.9
					C47.4,32,46.9,31.5,46.4,31.5z M43.4,24.2L43.4,24.2c0.4,0,0.6,0.3,0.6,0.6v0.2c-0.1,0-0.2,0-0.3,0h-2l0.6-0.9H43.4z M33.3,13.7
					c0.1-0.1,0.2-0.2,0.4-0.2c0,0,0.1,0,0.1,0c0.1,0,0.2,0,0.3,0.1l9.4,6.4c0.3,0.2,0.3,0.5,0.2,0.8l-3,4.3H40l1.5-2.1
					c0.2-0.3,0.3-0.8,0.1-1.1c-0.3-0.5-0.4-1-0.3-1.6c0.1-0.4-0.1-0.8-0.5-1l-4.9-3.3c-0.3-0.2-0.8-0.3-1.1-0.1
					c-0.5,0.3-1.1,0.4-1.6,0.3c-0.4-0.1-0.8,0.1-1,0.5l-5.8,8.5h-0.7L33.3,13.7z M33.5,21.5c-2,0-3.7,1.6-3.8,3.5h-2.3l5.5-8
					c0,0,0,0,0,0c0,0,0.1-0.1,0.1-0.1c0,0,0,0,0,0c0.7,0.1,1.5,0,2.2-0.4c0.1,0,0.1,0,0.2,0l4.9,3.3c0.1,0,0.1,0.1,0.1,0.2
					c-0.1,0.7,0.1,1.5,0.4,2.2c0,0.1,0,0.1,0,0.2l-1.8,2.6h-1.6C37.2,23.1,35.6,21.5,33.5,21.5z M36.4,25.1h-5.7
					c0.1-1.5,1.4-2.6,2.9-2.6C35,22.5,36.3,23.6,36.4,25.1z M18.1,24.9c0-0.4,0.3-0.6,0.6-0.6h1.1l-0.1,0.9h-1.6V24.9z M16.9,27.1
					c0-0.6,0.5-1.1,1.1-1.1h25.8c0.6,0,1.1,0.5,1.1,1.1v1.3h-28V27.1z M44.9,42.9c0,0.6-0.5,1.1-1.1,1.1H18c-0.6,0-1.1-0.5-1.1-1.1
					v-1.3h2.5c0.3,0,0.5-0.2,0.5-0.5s-0.2-0.5-0.5-0.5h-2.5V29.3h28v2.2h-4.4h0c-1.4,0-2.6,0.8-3.2,2c0,0,0,0,0,0c0,0,0,0,0,0
					c-0.1,0.1-0.1,0.3-0.2,0.4c0,0,0,0,0,0c-0.1,0.3-0.2,0.7-0.2,1c0,1.9,1.6,3.5,3.5,3.5h0h4.4v2.2H22.3c-0.3,0-0.5,0.2-0.5,0.5
					s0.2,0.5,0.5,0.5h22.6V42.9z M46.5,37.5c0,0.1-0.1,0.1-0.1,0.1h-5.8c-1,0-1.8-0.5-2.3-1.4c0,0,0-0.1-0.1-0.1
					c0-0.1-0.1-0.2-0.1-0.2C38,35.6,38,35.3,38,35s0.1-0.6,0.2-0.9c0-0.1,0.1-0.2,0.1-0.2c0,0,0-0.1,0.1-0.1
					c0.4-0.8,1.3-1.4,2.3-1.4h5.8c0.1,0,0.1,0.1,0.1,0.1L46.5,37.5L46.5,37.5z"/>
				<path id="XMLID_348_" class="st1" d="M43.8,45.1H18c-1.2,0-2.2-1-2.2-2.2V27.1c0-0.8,0.5-1.6,1.2-2v-0.3c0-0.9,0.8-1.7,1.7-1.7
					h1l0.7-6.9c0.1-0.9,0.9-1.6,1.8-1.5l7.2,0.7c0.3,0,0.6,0.3,0.6,0.7c0,0.3-0.3,0.6-0.7,0.6L22.1,16c-0.1,0-0.2,0-0.3,0.1
					c-0.1,0.1-0.1,0.2-0.2,0.3l-0.8,8.6h0.3l0.5-5.5c0-0.5,0.4-0.9,0.8-1c0.5-0.2,0.9-0.5,1.2-1c0.3-0.4,0.7-0.6,1.2-0.6l3.5,0.4
					c0.2,0,0.3,0.1,0.4,0.2c0.1,0.1,0.2,0.3,0.1,0.5c0,0.3-0.3,0.6-0.7,0.6l-3.5-0.4c-0.4,0.7-1.1,1.2-1.8,1.5l-0.5,5.4h2l8.1-11.8
					c0.2-0.4,0.6-0.6,1.1-0.7c0.4-0.1,0.9,0,1.2,0.3l9.4,6.4c0.4,0.2,0.6,0.6,0.7,1.1c0.1,0.4,0,0.9-0.3,1.2l-1.2,1.8h0.1
					c0.9,0,1.7,0.8,1.7,1.7v0.5c0.5,0.4,0.9,1.1,0.9,1.8v4.2h0.3c0.7,0,1.2,0.5,1.2,1.2v4.9c0,0.7-0.5,1.2-1.2,1.2H46v4.2
					C46,44.1,45,45.1,43.8,45.1z M18.7,23.5c-0.8,0-1.4,0.6-1.4,1.4v0.5l-0.1,0c-0.7,0.3-1.1,1-1.1,1.7v15.8c0,1,0.9,1.9,1.9,1.9
					h25.8c1,0,1.9-0.9,1.9-1.9v-4.5h0.6c0.5,0,0.9-0.4,0.9-0.9v-4.9c0-0.5-0.4-0.9-0.9-0.9h-0.6v-4.5c0-0.6-0.3-1.2-0.8-1.5l-0.1,0
					v-0.7c0-0.8-0.6-1.4-1.4-1.4h-0.7l1.6-2.3c0.2-0.3,0.3-0.7,0.2-1c-0.1-0.4-0.3-0.7-0.6-0.9l-9.4-6.4c-0.3-0.2-0.7-0.3-1-0.2
					c-0.4,0.1-0.7,0.3-0.9,0.6l-8.2,12H22l0.6-5.7c0-0.1,0.1-0.2,0.2-0.3c0.7-0.3,1.3-0.7,1.6-1.3c0.1-0.1,0.2-0.2,0.3-0.1l3.5,0.3
					c0.2,0,0.3-0.1,0.3-0.3c0-0.2-0.1-0.3-0.3-0.3l-3.5-0.4c-0.4,0-0.7,0.1-0.9,0.4c-0.3,0.5-0.8,0.9-1.3,1.1
					c-0.3,0.1-0.6,0.4-0.6,0.8l-0.6,5.8h-0.9l0.9-8.9c0-0.2,0.1-0.4,0.3-0.5s0.3-0.2,0.5-0.2l7.2,0.7c0.2,0,0.3-0.1,0.3-0.3
					c0-0.2-0.1-0.3-0.3-0.3l-7.2-0.7c-0.7-0.1-1.4,0.5-1.5,1.2l-0.7,7.2H18.7z M43.8,44.2H18c-0.7,0-1.3-0.6-1.3-1.3v-1.4h2.6
					c0.2,0,0.3-0.1,0.3-0.3c0-0.2-0.1-0.3-0.3-0.3h-2.6V29.2h28.4v2.5h-4.6c-1.3,0-2.5,0.7-3,1.9l-0.2,0l0.1,0.1
					c-0.1,0.1-0.1,0.3-0.2,0.4l0,0c-0.1,0.3-0.1,0.6-0.1,1c0,1.8,1.5,3.3,3.3,3.3h4.6v2.5H22.3c-0.2,0-0.3,0.1-0.3,0.3
					c0,0.2,0.1,0.3,0.3,0.3h22.8v1.4C45.1,43.6,44.5,44.2,43.8,44.2z M17.1,41.8v1.1c0,0.5,0.4,1,1,1h25.8c0.5,0,1-0.4,1-1v-1.1
					H22.3c-0.3,0-0.6-0.3-0.6-0.6s0.3-0.6,0.6-0.6h22.4v-1.9h-4.2c-2,0-3.7-1.6-3.7-3.7c0-0.4,0.1-0.7,0.2-1.1l0,0
					c0-0.2,0.1-0.3,0.2-0.5l0,0c0.6-1.3,1.9-2.1,3.3-2.1h4.2v-1.9H17.1v11h2.3c0.3,0,0.6,0.3,0.6,0.6s-0.3,0.6-0.6,0.6H17.1z
					 M46.4,37.8h-5.8c-1,0-1.9-0.5-2.4-1.4c0,0,0-0.1-0.1-0.1C38,36.1,38,36,38,36c-0.1-0.3-0.2-0.6-0.2-0.9c0-0.3,0.1-0.6,0.2-0.9
					c0-0.1,0.1-0.2,0.1-0.2c0,0,0-0.1,0.1-0.1c0.5-0.9,1.4-1.4,2.4-1.4h5.8c0.1,0,0.3,0.1,0.3,0.3v4.9
					C46.6,37.6,46.5,37.8,46.4,37.8z M40.6,32.6c-0.9,0-1.7,0.5-2.1,1.3c0,0,0,0.1-0.1,0.1c0,0.1-0.1,0.1-0.1,0.2
					c-0.1,0.3-0.1,0.5-0.1,0.8c0,0.3,0,0.6,0.1,0.8c0,0.1,0.1,0.1,0.1,0.2c0,0,0,0.1,0.1,0.1c0.4,0.8,1.2,1.3,2.1,1.3h5.8v-4.9H40.6
					z M45.1,28.6H16.7v-1.4c0-0.7,0.6-1.3,1.3-1.3h25.8c0.7,0,1.3,0.6,1.3,1.3V28.6z M17.1,28.3h27.7v-1.1c0-0.5-0.4-1-1-1H18
					c-0.5,0-1,0.4-1,1V28.3z M44.2,25.3l-0.2,0c-0.1,0-0.2,0-0.2,0h-2.3l0.8-1.2h1.1c0.4,0,0.8,0.4,0.8,0.8V25.3z M42.2,24.9h1.7
					c0,0,0.1,0,0.1,0v-0.1c0-0.3-0.2-0.5-0.5-0.5h-0.9L42.2,24.9z M40.8,25.2h-1.1l1.6-2.4c0.2-0.3,0.2-0.7,0-1
					c-0.3-0.5-0.4-1.1-0.3-1.7c0-0.3-0.1-0.7-0.4-0.9L35.8,16c-0.3-0.2-0.7-0.2-1,0c-0.5,0.3-1.1,0.4-1.7,0.3
					c-0.3,0-0.7,0.1-0.9,0.4l-5.9,8.6h-1.1l7.9-11.6c0.1-0.2,0.3-0.3,0.5-0.3c0.2,0,0.4,0,0.5,0.1l9.4,6.4c0.3,0.2,0.4,0.7,0.2,1
					L40.8,25.2z M40.3,24.9h0.3l2.9-4.3c0.1-0.2,0.1-0.4-0.1-0.6L34,13.7c-0.1-0.1-0.2-0.1-0.3-0.1c-0.1,0-0.2,0.1-0.3,0.2
					l-7.6,11.2h0.3l5.8-8.5c0.3-0.4,0.7-0.6,1.2-0.5c0.5,0.1,1,0,1.5-0.3c0.4-0.2,0.9-0.2,1.3,0.1l4.9,3.3c0.4,0.3,0.6,0.7,0.5,1.2
					c-0.1,0.5,0,1,0.3,1.5c0.2,0.4,0.2,0.9-0.1,1.3L40.3,24.9z M39,25.2h-1.8l0-0.1c-0.1-1.9-1.7-3.4-3.6-3.4s-3.5,1.5-3.6,3.4
					l0,0.1h-2.8l5.6-8.2c0.1-0.1,0.2-0.1,0.3-0.1l0,0c0.7,0.1,1.4,0,2.1-0.4c0.1-0.1,0.2,0,0.3,0l4.9,3.3c0.1,0.1,0.2,0.2,0.1,0.3
					c-0.1,0.7,0.1,1.4,0.4,2.1c0.1,0.1,0.1,0.2,0,0.3L39,25.2z M37.5,24.9h1.3l1.8-2.6c-0.4-0.7-0.5-1.5-0.4-2.3l-4.9-3.3
					c-0.7,0.4-1.5,0.5-2.3,0.4l-5.3,7.8h1.9c0.2-2,1.9-3.5,3.9-3.5S37.3,22.9,37.5,24.9z M36.6,25.2h-6.1l0-0.2
					c0.1-1.6,1.5-2.8,3-2.8c0,0,0,0,0,0c1.6,0,2.9,1.2,3,2.8L36.6,25.2z M30.8,24.9h5.4c-0.2-1.3-1.4-2.3-2.7-2.3c0,0,0,0,0,0
					C32.2,22.6,31,23.6,30.8,24.9z M19.9,25.2h-1.9v-0.4c0-0.4,0.4-0.8,0.8-0.8H20L19.9,25.2z M18.3,24.9h1.4l0.1-0.5h-0.9
					C18.5,24.4,18.3,24.6,18.3,24.9L18.3,24.9z"/>
			</g>
		</g>
	</g>
</g>
</svg>
