<?xml version="1.0" encoding="utf-8"?>
<!-- Generator: Adobe Illustrator 19.0.0, SVG Export Plug-In . SVG Version: 6.00 Build 0)  -->
<svg version="1.1" id="Layer_1" xmlns="http://www.w3.org/2000/svg" xmlns:xlink="http://www.w3.org/1999/xlink" x="0px" y="0px"
	 viewBox="0 0 61 61" style="enable-background:new 0 0 61 61;" xml:space="preserve">
<style type="text/css">
	.st0{fill:#F095A4;}
	.st1{fill:#FFFFFF;}
</style>
<g id="XMLID_285_">
	<g id="XMLID_296_">
		<circle id="XMLID_457_" class="st0" cx="30.5" cy="30.5" r="30"/>
	</g>
	<g id="XMLID_286_">
		<g id="XMLID_289_">
			<g id="XMLID_290_">
				<path id="XMLID_367_" class="st1" d="M43.2,46.1c-2.1,0-3.8-1.7-3.8-3.8c0-2.1,1.7-3.8,3.8-3.8c2.1,0,3.8,1.7,3.8,3.8
					C47,44.3,45.3,46.1,43.2,46.1z M43.2,39.6c-1.4,0-2.6,1.2-2.6,2.6c0,1.4,1.2,2.6,2.6,2.6c1.4,0,2.6-1.2,2.6-2.6
					C45.7,40.8,44.6,39.6,43.2,39.6z M23.2,46.1c-2.1,0-3.8-1.7-3.8-3.8c0-2.1,1.7-3.8,3.8-3.8c2.1,0,3.8,1.7,3.8,3.8
					C27.1,44.3,25.3,46.1,23.2,46.1z M23.2,39.6c-1.4,0-2.6,1.2-2.6,2.6c0,1.4,1.2,2.6,2.6,2.6c1.4,0,2.6-1.2,2.6-2.6
					C25.8,40.8,24.6,39.6,23.2,39.6z M50.1,42.1h-2.5l-0.1-0.5c-0.3-2.2-2.2-3.8-4.4-3.8c-2.2,0-4.1,1.6-4.4,3.8l-0.1,0.5H27.6
					l-0.1-0.5c-0.3-2.2-2.2-3.8-4.4-3.8c-2.2,0-4.1,1.6-4.4,3.8l-0.1,0.5h-3c-1.4,0-2.5-1.1-2.5-2.5v-4.5h39.3v4.5
					C52.6,41,51.5,42.1,50.1,42.1z M48.7,40.9h1.5c0.7,0,1.2-0.5,1.2-1.2v-3.4H14.5v3.4c0,0.7,0.5,1.2,1.2,1.2h1.9
					c0.6-2.5,2.9-4.3,5.5-4.3c2.6,0,4.9,1.8,5.5,4.3h8.9c0.6-2.5,2.9-4.3,5.5-4.3C45.8,36.5,48.1,38.4,48.7,40.9z M52.6,34.6H13.3
					l0-3.2l-2.7-1.2c-0.3-0.1-0.4-0.4-0.4-0.7c0-0.3,0.3-0.5,0.6-0.6l2.9-0.6l-4.7-1.1c-0.3-0.1-0.5-0.4-0.5-0.7
					c0-0.3,0.3-0.6,0.6-0.7l4.3-0.7l-7-1.4c-0.4-0.1-0.6-0.4-0.6-0.7s0.3-0.6,0.6-0.6l6.9-0.4c0.2-1.2,1.2-2.2,2.5-2.2h21.1
					c1.4,0,2.5,1.1,2.5,2.5V23h3c0.8,0,1.6,0.3,2.2,0.9l7.2,7.2c0.6,0.6,0.9,1.4,0.9,2.2V34.6z M14.5,33.3h36.8v-0.1
					c0-0.5-0.2-1-0.5-1.3l-7.2-7.1c-0.3-0.3-0.8-0.5-1.3-0.5H38v-2c0-0.7-0.5-1.2-1.2-1.2H15.7c-0.7,0-1.2,0.5-1.2,1.2v0.9L11,23.3
					l5.2,1c0.4,0.1,0.6,0.4,0.6,0.8s-0.3,0.7-0.6,0.7l-4.3,0.7l4.1,1c0.4,0.1,0.6,0.4,0.6,0.8c0,0.4-0.3,0.7-0.6,0.7l-3.3,0.6
					l1.8,0.8V33.3z M48.1,32.3h-7c-0.5,0-0.9-0.4-0.9-0.9V26c0-0.5,0.4-0.9,0.9-0.9h1.3c0.2,0,0.4,0.1,0.6,0.2l5.7,5.4
					c0.3,0.3,0.4,0.6,0.2,1C48.8,32.1,48.5,32.3,48.1,32.3z M41.4,31.1h5.8l-4.9-4.7h-0.9V31.1z"/>
			</g>
		</g>
		<g id="XMLID_288_">
			<circle id="XMLID_262_" class="st1" cx="23.2" cy="42.2" r="1"/>
		</g>
		<g id="XMLID_287_">
			<circle id="XMLID_261_" class="st1" cx="43.2" cy="42.2" r="1"/>
		</g>
	</g>
</g>
</svg>
