<?xml version="1.0" encoding="utf-8"?>
<!-- Generator: Adobe Illustrator 19.0.0, SVG Export Plug-In . SVG Version: 6.00 Build 0)  -->
<svg version="1.1" id="Layer_1" xmlns="http://www.w3.org/2000/svg" xmlns:xlink="http://www.w3.org/1999/xlink" x="0px" y="0px"
	 viewBox="0 0 61 61" style="enable-background:new 0 0 61 61;" xml:space="preserve">
<style type="text/css">
	.st0{fill:#F095A4;}
	.st1{fill:#FFFFFF;}
</style>
<g id="XMLID_325_">
	<g id="XMLID_335_">
		<circle id="XMLID_443_" class="st0" cx="30.5" cy="30.5" r="30"/>
	</g>
	<g id="XMLID_331_">
		<g id="XMLID_332_">
			<path id="XMLID_439_" class="st1" d="M29.3,46.9c-0.2,0-0.4,0-0.6-0.1c-0.8-0.3-7.9-3-9.8-3.8c-1-0.4-2.5,0.5-3.3,1.1
				c-0.4,0.3-0.8,0.4-1.3,0.3c-0.4-0.1-0.8-0.3-1.1-0.7l-3.6-5c-0.3-0.4-0.4-0.8-0.3-1.3c0.1-0.4,0.4-0.8,0.7-1.1
				c0.9-0.6,2.3-1.5,3.6-2.7c1.3-1.2,3.6-1.8,6-1.5c3.4,0.3,6.5,2.1,8.9,5.1c0.1,0.1,0.2,0.2,0.4,0.2l4.8,0.4c0.4,0,0.8,0.1,1.1,0.2
				c0.8,0.3,2,0.8,2.8,1.5c0.7-0.4,5.2-3.3,7.3-3.3c0,0,0,0,0,0c0.8,0,1.4,0.3,1.6,0.7c0.2,0.4,0.1,0.9-0.2,1.5
				c-0.1,0.1-0.2,0.2-0.3,0.4l-6.7,5.8c-0.2,0.2-0.5,0.3-0.8,0.4l-9.2,1.9C29.5,46.9,29.4,46.9,29.3,46.9z M18.4,41.8
				c0.3,0,0.7,0.1,1,0.2c1.8,0.8,9.4,3.6,9.7,3.8c0.1,0,0.2,0,0.3,0l9.2-1.9c0.1,0,0.2-0.1,0.3-0.1l6.7-5.8c0,0,0.1-0.1,0.1-0.1
				c0.1-0.2,0.2-0.4,0.2-0.4c0,0-0.1-0.1-0.6-0.1c0,0,0,0,0,0c-1.5,0-5.2,2.1-6.6,3.1c0.2,0.4,0.3,0.8,0.2,1.2
				c-0.1,0.8-0.8,1.4-1.6,1.4l-3.6,0.1c-0.2,0-0.3,0-0.5-0.1l-1.3-0.4c-0.1,0-0.2,0-0.2,0l-3.8,0.5c-0.3,0-0.6-0.2-0.6-0.5
				c0-0.3,0.2-0.6,0.5-0.6l3.8-0.5c0.2,0,0.5,0,0.7,0.1l1.3,0.4c0.1,0,0.1,0,0.2,0l3.6-0.1c0.2,0,0.5-0.2,0.5-0.4
				c0.1-0.9-1.5-1.9-3-2.4c-0.3-0.1-0.6-0.2-0.9-0.2L29,38.4c-0.4,0-0.9-0.3-1.1-0.6c-2.2-2.7-5.1-4.4-8.1-4.6
				c-2.1-0.2-4.1,0.3-5.1,1.3c-1.4,1.3-2.8,2.2-3.8,2.8c-0.1,0.1-0.2,0.2-0.2,0.4c0,0.1,0,0.3,0.1,0.4l3.6,5
				c0.1,0.1,0.2,0.2,0.4,0.2c0.1,0,0.3,0,0.4-0.1C15.9,42.5,17.2,41.8,18.4,41.8z"/>
		</g>
	</g>
	<g id="XMLID_326_">
		<g id="XMLID_327_">
			<g id="XMLID_328_">
				<path id="XMLID_434_" class="st1" d="M36.1,34.6h-6.2c-0.2,0-0.3-0.1-0.5-0.2c-0.1-0.1-0.2-0.3-0.2-0.5c0.2-3,1-5.9,2.4-8.9
					c1.2-2.6,2.9-5.2,5.1-7.7H27c-0.4,0-0.6-0.3-0.6-0.6v-4.6c0-0.4,0.3-0.6,0.6-0.6h16.7c0.4,0,0.6,0.3,0.6,0.6v4.4
					c0,0.2-0.1,0.3-0.2,0.4c-2.3,2.6-4.1,5.3-5.4,8.2c-1.2,2.8-2,5.8-2.1,8.9C36.7,34.4,36.4,34.6,36.1,34.6z M30.6,33.3h4.9
					c0.2-3,1-6,2.2-8.8c1.3-2.9,3.1-5.7,5.4-8.3v-3.5H27.7V16h10.4c0.3,0,0.5,0.1,0.6,0.4c0.1,0.2,0.1,0.5-0.1,0.7
					c-2.5,2.8-4.5,5.7-5.8,8.5C31.5,28.2,30.8,30.8,30.6,33.3z"/>
			</g>
		</g>
	</g>
</g>
</svg>
